<svg width="303" height="313" viewBox="0 0 303 313" fill="none" xmlns="http://www.w3.org/2000/svg">
<rect x="4.51733" y="50" width="136.277" height="135.494" rx="67.7472" fill="#CDE1FD"/>
<g clip-path="url(#clip0_13_568)">
<path d="M110.021 83.0714L117.972 76.0882H109.862L110.021 83.0714Z" fill="#002DE3"/>
<path d="M152.597 76.8787H113.032C106.977 76.8787 102.07 71.9991 102.07 65.9797V60.8991C102.07 54.8797 106.977 50 113.032 50L152.597 50C158.651 50 163.559 54.8797 163.559 60.8991V65.9797C163.559 71.9991 158.651 76.8787 152.597 76.8787Z" fill="#002DE3"/>
<path d="M124.598 65.811C123.281 65.811 122.213 64.7492 122.213 63.4394C122.213 62.1295 123.281 61.0677 124.598 61.0677C125.915 61.0677 126.983 62.1295 126.983 63.4394C126.983 64.7492 125.915 65.811 124.598 65.811Z" fill="white"/>
<path d="M132.814 65.811C131.497 65.811 130.429 64.7492 130.429 63.4394C130.429 62.1295 131.497 61.0677 132.814 61.0677C134.132 61.0677 135.199 62.1295 135.199 63.4394C135.199 64.7492 134.132 65.811 132.814 65.811Z" fill="white"/>
<path d="M141.03 65.811C139.713 65.811 138.645 64.7492 138.645 63.4394C138.645 62.1295 139.713 61.0677 141.03 61.0677C142.348 61.0677 143.416 62.1295 143.416 63.4394C143.416 64.7492 142.348 65.811 141.03 65.811Z" fill="white"/>
</g>
<path d="M147.647 164.794L137.097 161.108L129.021 183.962L139.571 187.648L147.647 164.794Z" fill="#1F161E"/>
<path d="M154.277 275.179C154.732 275.891 157.153 280.172 158.494 280.61C160.923 281.396 173.498 276.888 173.837 276.292C174.176 275.696 173.984 274.71 173.274 274.626C172.565 274.541 166.952 275.385 166.042 275.264C165.133 275.142 163.028 273.682 162.781 272.627" fill="#1F161E"/>
<path d="M1.13477 209.466C1.13477 238.233 14.1218 244.274 27.0407 244.274C59.7653 244.274 102.34 225.778 104.744 225.064C103.988 228.09 99.2177 304.793 99.2177 305.235C100.352 305.858 109.045 306.396 111.97 305.858C112.726 303.994 135.714 212.763 135.714 210.361C135.714 207.958 133.734 204.304 126.242 203.776C123.075 203.552 79.0114 202.263 79.0114 202.263" fill="#1F161E"/>
<path d="M111.22 189.575C121.08 199.663 165.107 270.089 164.716 271.735C164.326 273.381 154.203 276.869 152.063 275.93C142.984 271.974 87.2433 205.504 85.0731 204.501C82.9029 203.497 79.6514 203.885 77.714 204.161C72.6753 198.24 83.9542 191.21 111.22 189.575Z" fill="#0F1828"/>
<path d="M66.7124 109.136C81.5363 109.136 85.7987 123.092 87.0252 128.361C90.947 145.185 80.0297 209.116 78.7653 210.877C68.0373 225.789 6.71284 227.114 0.731806 220.655C-5.24923 214.197 26.208 109.136 66.7124 109.136Z" fill="#375FFF"/>
<path d="M100.906 304.925C100.707 305.652 99.2079 309.907 99.9576 310.738C101.304 312.242 115.311 313.279 116.076 312.933C116.841 312.587 117.476 311.741 116.971 311.43C116.466 311.119 111.157 309.726 110.507 309.295C109.857 308.864 109.313 306.95 109.979 306.028" fill="#1F161E"/>
<path d="M64.4942 112.079C64.0929 113.359 74.5559 116.595 74.9572 115.323L79.0152 102.376L68.5597 99.1318L64.4942 112.079Z" fill="#F8CDBA"/>
<path d="M74.8663 105.44C73.8442 105.124 66.4172 105.974 65.9175 107.57L68.5597 99.1318C70.1875 99.6361 74.8663 105.44 74.8663 105.44Z" fill="#1F161E"/>
<path d="M80.7035 107.517C89.1873 107.517 96.0649 100.679 96.0649 92.2441C96.0649 83.809 89.1873 76.9709 80.7035 76.9709C72.2196 76.9709 65.342 83.809 65.342 92.2441C65.342 100.679 72.2196 107.517 80.7035 107.517Z" fill="#F8CDBA"/>
<path d="M96.0257 100.29C96.2561 99.5558 95.2909 98.6033 93.87 98.1624C92.449 97.7215 91.1103 97.9593 90.8799 98.6935C90.6494 99.4277 91.6146 100.38 93.0355 100.821C94.4565 101.262 95.7952 101.024 96.0257 100.29Z" fill="#FA9E9F"/>
<path d="M79.8736 95.2823C80.104 94.5481 79.1388 93.5956 77.7179 93.1547C76.2969 92.7138 74.9582 92.9516 74.7278 93.6858C74.4973 94.42 75.4625 95.3726 76.8834 95.8134C78.3044 96.2543 79.6431 96.0165 79.8736 95.2823Z" fill="#FA9E9F"/>
<path d="M88.0548 94.7959C88.3198 95.624 89.8946 99.2522 86.9343 99.606" stroke="#0F1828" stroke-width="1.2" stroke-miterlimit="10" stroke-linecap="round"/>
<path d="M80.696 101.337C79.9389 101.074 79.0304 99.7791 78.6746 98.7178" stroke="#0F1828" stroke-width="1.2" stroke-miterlimit="10" stroke-linecap="round"/>
<path d="M85.3521 72.206C81.3016 71.7017 69.544 68.224 66.8715 65.8077C65.6071 66.4701 60.6936 70.8586 56.6886 76.7978L62.3743 82.481L55.1895 79.184C53.2961 82.2689 51.9945 85.6763 51.3511 89.2332C53.206 94.2088 59.028 96.2563 60.1258 96.3918C67.2046 97.28 69.9226 86.3426 73.4885 84.9877C79.5452 82.6767 86.677 88.6761 95.6486 88.2997C97.6397 84.2575 95.0504 73.4179 85.3521 72.206Z" fill="#1F161E"/>
<path d="M66.6216 93.2453C68.5826 93.2453 70.1723 91.6647 70.1723 89.7149C70.1723 87.7651 68.5826 86.1845 66.6216 86.1845C64.6605 86.1845 63.0708 87.7651 63.0708 89.7149C63.0708 91.6647 64.6605 93.2453 66.6216 93.2453Z" fill="#F8CDBA"/>
<path d="M51.351 144.936C50.5939 149.649 48.1409 194.143 54.016 198.472C66.5989 207.738 124.706 196.402 133.511 193.157C134.465 190.056 133.511 180.203 133.511 180.203C130.119 180.067 87.328 179.661 84.7766 176.439C82.2252 173.217 81.9224 146.878 82.3312 143.905" fill="#375FFF"/>
<path d="M139.431 194.189C143.976 194.189 147.661 190.525 147.661 186.006C147.661 181.487 143.976 177.824 139.431 177.824C134.886 177.824 131.202 181.487 131.202 186.006C131.202 190.525 134.886 194.189 139.431 194.189Z" fill="#F8CDBA"/>
<path d="M84.769 176.461C82.1874 173.217 81.9148 146.901 82.3236 143.928" stroke="#0F1828" stroke-linecap="round" stroke-linejoin="round"/>
<path d="M80.7489 201.814C68.8928 202.469 58.5282 201.814 54.0159 198.472C51.4418 196.582 50.4652 187 50.2305 176.424" stroke="#0F1828" stroke-linecap="round" stroke-linejoin="round"/>
<g clip-path="url(#clip1_13_568)">
<rect x="187.545" width="115.455" height="115" rx="57.5" fill="#CDE1FD"/>
<g clip-path="url(#clip2_13_568)">
<path d="M203.818 65.1825C202.523 64.2778 197.033 57.63 196.386 55.3957C195.738 53.1614 195.252 44.7392 201.655 46.6536C208.058 48.568 205.167 55.3157 209.684 59.5693" fill="#F8CDBA"/>
<path d="M201.675 40.6279L195.882 45.2338L205.957 57.8043L211.749 53.1985L201.675 40.6279Z" fill="#1F161E"/>
<path d="M283.144 59.5693C284.719 61.0288 300.832 88.0599 300.832 91.4438C300.832 94.8277 297.114 115.351 294.976 119.729C292.839 124.108 283.144 59.5693 283.144 59.5693Z" fill="#1F161E"/>
<path d="M273.664 52.0468C296.858 52.0468 299.889 133.46 298.253 136.734C296.617 140.008 256.061 139.628 252.774 136.734C249.487 133.84 252.333 52.0468 273.664 52.0468Z" fill="#002DE3"/>
<path d="M269.494 54.7659C269.494 56.2154 277.523 56.3254 277.523 54.7659V45.0491H269.494V54.7659Z" fill="#F8CDBA"/>
<path d="M277.533 50.8422C277.533 49.9775 275.526 46.9935 274.021 47.4983C275.913 46.8335 276.846 44.5643 277.533 45.0291V50.8422Z" fill="#0F1828"/>
<path d="M269.946 48.318C275.713 48.318 280.389 43.6611 280.389 37.9165C280.389 32.1718 275.713 27.5149 269.946 27.5149C264.179 27.5149 259.503 32.1718 259.503 37.9165C259.503 43.6611 264.179 48.318 269.946 48.318Z" fill="#F8CDBA"/>
<path d="M259.388 40.2157C260.35 40.2157 261.129 39.8107 261.129 39.311C261.129 38.8114 260.35 38.4063 259.388 38.4063C258.426 38.4063 257.647 38.8114 257.647 39.311C257.647 39.8107 258.426 40.2157 259.388 40.2157Z" fill="#FA9E9F"/>
<path d="M270.337 40.2157C271.299 40.2157 272.079 39.8107 272.079 39.311C272.079 38.8114 271.299 38.4063 270.337 38.4063C269.376 38.4063 268.596 38.8114 268.596 39.311C268.596 39.8107 269.376 40.2157 270.337 40.2157Z" fill="#FA9E9F"/>
<path d="M263.628 37.4366C263.307 37.9015 261.621 39.8458 263.397 40.6306" stroke="#0F1828" stroke-width="0.69" stroke-miterlimit="10" stroke-linecap="round"/>
<path d="M266.92 42.8998C267.422 42.8998 268.25 42.255 268.676 41.6702" stroke="#0F1828" stroke-width="0.69" stroke-miterlimit="10" stroke-linecap="round"/>
<path d="M279.927 31.8535C279.927 28.2447 274.874 25.5556 271.356 25.5556C265.756 25.5556 258.931 26.9151 257.807 27.31C255.921 27.9648 255.599 29.9691 255.599 30.6389C255.599 33.4479 256.603 35.1974 259.734 35.6372C259.949 34.6463 260.318 33.6951 260.828 32.8182C261.695 32.4864 262.651 32.4705 263.528 32.7732C264.321 33.0481 270.945 36.1571 275.847 36.1571C276.5 37.0717 277.935 42.6549 277.513 45.0241C278.949 45.1091 281.593 40.4556 281.729 38.0264C281.759 37.1928 281.594 36.3636 281.245 35.605C280.897 34.8465 280.375 34.1797 279.721 33.6579C279.787 33.133 279.927 32.1384 279.927 31.8535Z" fill="#0F1828"/>
<path d="M276.309 40.7005C277.578 40.7005 278.607 39.6756 278.607 38.4113C278.607 37.147 277.578 36.1221 276.309 36.1221C275.04 36.1221 274.011 37.147 274.011 38.4113C274.011 39.6756 275.04 40.7005 276.309 40.7005Z" fill="#F8CDBA"/>
<path d="M279.761 74.0395C274.011 82.7916 242.918 96.5971 239.647 96.5971C230.97 96.5971 205.283 68.2015 203.817 65.1725C205.508 63.3731 209.111 59.5593 209.674 59.5593C210.236 59.5593 234.689 76.3938 239.31 76.3938C243.932 76.3938 265.836 61.0438 268.686 60.3541" fill="#002DE3"/>
<path d="M260.938 64.7476C264.727 62.4034 267.743 60.579 268.686 60.354" stroke="#0F1828" stroke-linecap="round" stroke-linejoin="round"/>
<path d="M254.43 90.759C264.466 85.9556 276.414 79.1478 279.762 74.0495" stroke="#0F1828" stroke-linecap="round" stroke-linejoin="round"/>
<path d="M252.809 103.145C253.015 101.191 263.182 86.3305 265.144 85.1809C263.061 86.3355 255.178 90.3192 254.43 90.759C253.993 91.9236 252.809 103.145 252.809 103.145Z" fill="#1F161E"/>
</g>
</g>
<g clip-path="url(#clip3_13_568)">
<path d="M223.247 30.3883L216.23 24.2144H223.387L223.247 30.3883Z" fill="#375FFF"/>
<path d="M185.674 24.9134L220.59 24.9134C225.933 24.9134 230.264 20.5993 230.264 15.2776V10.7858C230.264 5.4641 225.933 1.15 220.59 1.15L185.674 1.15C180.331 1.15 176 5.4641 176 10.7858V15.2776C176 20.5993 180.331 24.9134 185.674 24.9134Z" fill="#375FFF"/>
<path d="M210.383 15.1285C211.545 15.1285 212.488 14.1897 212.488 13.0317C212.488 11.8737 211.545 10.9349 210.383 10.9349C209.22 10.9349 208.278 11.8737 208.278 13.0317C208.278 14.1897 209.22 15.1285 210.383 15.1285Z" fill="white"/>
<path d="M203.132 15.1285C204.295 15.1285 205.237 14.1897 205.237 13.0317C205.237 11.8737 204.295 10.9349 203.132 10.9349C201.969 10.9349 201.027 11.8737 201.027 13.0317C201.027 14.1897 201.969 15.1285 203.132 15.1285Z" fill="white"/>
<path d="M195.881 15.1285C197.044 15.1285 197.986 14.1897 197.986 13.0317C197.986 11.8737 197.044 10.9349 195.881 10.9349C194.719 10.9349 193.776 11.8737 193.776 13.0317C193.776 14.1897 194.719 15.1285 195.881 15.1285Z" fill="white"/>
</g>
<defs>
<clipPath id="clip0_13_568">
<rect width="61.4889" height="33.0714" fill="white" transform="matrix(-1 0 0 1 163.559 50)"/>
</clipPath>
<clipPath id="clip1_13_568">
<rect x="187.545" width="115.455" height="115" rx="57.5" fill="white"/>
</clipPath>
<clipPath id="clip2_13_568">
<rect width="128.283" height="252.452" fill="white" transform="translate(195.884 25.5556)"/>
</clipPath>
<clipPath id="clip3_13_568">
<rect width="54.2636" height="29.2383" fill="white" transform="translate(176 1.15)"/>
</clipPath>
</defs>
</svg>
